# Blender v3.1.2 OBJ File: ''
# www.blender.org
mtllib ButtonHL2.mtl
o Rosca.001
v 1.060000 0.086603 0.000000
v 0.917532 0.086812 0.000000
v 1.008120 0.086603 -0.327558
v 0.872624 0.086812 -0.283533
v 0.857558 0.086603 -0.623052
v 0.742299 0.086812 -0.539312
v 0.623052 0.086603 -0.857558
v 0.539311 0.086812 -0.742299
v 0.327558 0.086603 -1.008120
v 0.283533 0.086812 -0.872624
v 0.000000 0.086603 -1.060000
v 0.000000 0.086812 -0.917532
v -0.327558 0.086603 -1.008120
v -0.283533 0.086812 -0.872624
v -0.623053 0.086603 -0.857558
v -0.539312 0.086812 -0.742299
v -0.857558 0.086603 -0.623052
v -0.742299 0.086812 -0.539311
v -1.008120 0.086603 -0.327558
v -0.872624 0.086812 -0.283533
v -1.060000 0.086603 -0.000000
v -0.917532 0.086812 -0.000000
v -1.008120 0.086603 0.327558
v -0.872624 0.086812 0.283533
v -0.857558 0.086603 0.623052
v -0.742299 0.086812 0.539311
v -0.623053 0.086603 0.857558
v -0.539312 0.086812 0.742299
v -0.327558 0.086603 1.008120
v -0.283533 0.086812 0.872624
v 0.000000 0.086603 1.060000
v 0.000000 0.086812 0.917532
v 0.327558 0.086603 1.008120
v 0.283533 0.086812 0.872624
v 0.623052 0.086603 0.857558
v 0.539311 0.086812 0.742299
v 0.857558 0.086603 0.623053
v 0.742298 0.086812 0.539312
v 1.008120 0.086603 0.327558
v 0.872624 0.086812 0.283533
v 0.623052 0.116603 -0.857558
v 0.327558 0.116603 -1.008120
v 1.060000 0.116603 0.000000
v 1.008120 0.116603 0.327558
v 1.008120 0.116603 -0.327558
v 0.857558 0.116603 -0.623052
v 0.000000 0.116603 -1.060000
v -0.327558 0.116603 -1.008120
v -0.623053 0.116603 -0.857558
v -0.857558 0.116603 -0.623052
v -1.008120 0.116603 -0.327558
v -1.060000 0.116603 -0.000000
v -1.008120 0.116603 0.327558
v -0.857558 0.116603 0.623052
v -0.623053 0.116603 0.857558
v -0.327558 0.116603 1.008120
v 0.000000 0.116603 1.060000
v 0.327558 0.116603 1.008120
v 0.623052 0.116603 0.857558
v 0.857558 0.116603 0.623053
vt 0.550000 0.666667
vt 0.550000 0.833333
vt 0.600000 0.833333
vt 0.600000 0.666667
vt 0.650000 0.833333
vt 0.650000 0.666667
vt 0.700000 0.833333
vt 0.700000 0.666667
vt 0.750000 0.833333
vt 0.750000 0.666667
vt 0.800000 0.833333
vt 0.800000 0.666667
vt 0.850000 0.833333
vt 0.850000 0.666667
vt 0.900000 0.833333
vt 0.900000 0.666667
vt 0.950000 0.833333
vt 0.950000 0.666667
vt 1.000000 0.833333
vt 1.000000 0.666667
vt 0.000000 0.666667
vt 0.000000 0.833333
vt 0.050000 0.833333
vt 0.050000 0.666667
vt 0.100000 0.833333
vt 0.100000 0.666667
vt 0.150000 0.833333
vt 0.150000 0.666667
vt 0.200000 0.833333
vt 0.200000 0.666667
vt 0.250000 0.833333
vt 0.250000 0.666667
vt 0.300000 0.833333
vt 0.300000 0.666667
vt 0.350000 0.833333
vt 0.350000 0.666667
vt 0.400000 0.833333
vt 0.400000 0.666667
vt 0.450000 0.833333
vt 0.450000 0.666667
vt 0.500000 0.833333
vt 0.500000 0.666667
vt 0.650000 0.666667
vt 0.600000 0.666667
vt 1.000000 0.666667
vt 0.950000 0.666667
vt 0.350000 0.666667
vt 0.300000 0.666667
vt 0.700000 0.666667
vt 0.050000 0.666667
vt 0.000000 0.666667
vt 0.400000 0.666667
vt 0.100000 0.666667
vt 0.800000 0.666667
vt 0.750000 0.666667
vt 0.450000 0.666667
vt 0.150000 0.666667
vt 0.500000 0.666667
vt 0.850000 0.666667
vt 0.200000 0.666667
vt 0.550000 0.666667
vt 0.900000 0.666667
vt 0.250000 0.666667
vn -0.0015 -1.0000 0.0002
vn -0.0013 -1.0000 0.0007
vn -0.0011 -1.0000 0.0011
vn -0.0007 -1.0000 0.0013
vn -0.0002 -1.0000 0.0015
vn 0.0002 -1.0000 0.0015
vn 0.0007 -1.0000 0.0013
vn 0.0011 -1.0000 0.0011
vn 0.0013 -1.0000 0.0007
vn 0.0015 -1.0000 0.0002
vn 0.0015 -1.0000 -0.0002
vn 0.0013 -1.0000 -0.0007
vn 0.0011 -1.0000 -0.0011
vn 0.0007 -1.0000 -0.0013
vn 0.0002 -1.0000 -0.0015
vn -0.0002 -1.0000 -0.0015
vn -0.0007 -1.0000 -0.0013
vn -0.0011 -1.0000 -0.0011
vn -0.0013 -1.0000 -0.0007
vn -0.0015 -1.0000 -0.0002
vn 0.8910 0.0000 -0.4540
vn -0.8910 0.0000 -0.4540
vn 0.1564 0.0000 0.9877
vn 0.7071 0.0000 -0.7071
vn -0.9877 0.0000 -0.1564
vn 0.4540 0.0000 0.8910
vn -0.9877 0.0000 0.1564
vn 0.1564 0.0000 -0.9877
vn 0.7071 0.0000 0.7071
vn -0.8910 0.0000 0.4540
vn 0.8910 0.0000 0.4540
vn 0.4540 0.0000 -0.8910
vn -0.1564 0.0000 -0.9877
vn -0.7071 0.0000 0.7071
vn 0.9877 0.0000 0.1564
vn -0.4540 0.0000 -0.8910
vn -0.4540 0.0000 0.8910
vn 0.9877 0.0000 -0.1564
vn -0.7071 0.0000 -0.7071
vn -0.1564 0.0000 0.9877
usemtl None
s off
f 1/1/1 2/2/1 4/3/1 3/4/1
f 3/4/2 4/3/2 6/5/2 5/6/2
f 5/6/3 6/5/3 8/7/3 7/8/3
f 7/8/4 8/7/4 10/9/4 9/10/4
f 9/10/5 10/9/5 12/11/5 11/12/5
f 11/12/6 12/11/6 14/13/6 13/14/6
f 13/14/7 14/13/7 16/15/7 15/16/7
f 15/16/8 16/15/8 18/17/8 17/18/8
f 17/18/9 18/17/9 20/19/9 19/20/9
f 19/21/10 20/22/10 22/23/10 21/24/10
f 21/24/11 22/23/11 24/25/11 23/26/11
f 23/26/12 24/25/12 26/27/12 25/28/12
f 25/28/13 26/27/13 28/29/13 27/30/13
f 27/30/14 28/29/14 30/31/14 29/32/14
f 29/32/15 30/31/15 32/33/15 31/34/15
f 31/34/16 32/33/16 34/35/16 33/36/16
f 33/36/17 34/35/17 36/37/17 35/38/17
f 35/38/18 36/37/18 38/39/18 37/40/18
f 37/40/19 38/39/19 40/41/19 39/42/19
f 39/42/20 40/41/20 2/2/20 1/1/20
f 3/4/21 5/6/21 46/43/21 45/44/21
f 17/18/22 19/20/22 51/45/22 50/46/22
f 31/34/23 33/36/23 58/47/23 57/48/23
f 5/6/24 7/8/24 41/49/24 46/43/24
f 19/21/25 21/24/25 52/50/25 51/51/25
f 33/36/26 35/38/26 59/52/26 58/47/26
f 21/24/27 23/26/27 53/53/27 52/50/27
f 9/10/28 11/12/28 47/54/28 42/55/28
f 35/38/29 37/40/29 60/56/29 59/52/29
f 23/26/30 25/28/30 54/57/30 53/53/30
f 37/40/31 39/42/31 44/58/31 60/56/31
f 7/8/32 9/10/32 42/55/32 41/49/32
f 11/12/33 13/14/33 48/59/33 47/54/33
f 25/28/34 27/30/34 55/60/34 54/57/34
f 39/42/35 1/1/35 43/61/35 44/58/35
f 13/14/36 15/16/36 49/62/36 48/59/36
f 27/30/37 29/32/37 56/63/37 55/60/37
f 1/1/38 3/4/38 45/44/38 43/61/38
f 15/16/39 17/18/39 50/46/39 49/62/39
f 29/32/40 31/34/40 57/48/40 56/63/40
